<svg width="24" height="25" viewBox="0 0 24 25" fill="none" xmlns="http://www.w3.org/2000/svg">
<path d="M21.4102 9.29149V9.24149C20.7056 7.31772 19.4271 5.65678 17.7477 4.48336C16.0683 3.30994 14.0689 2.68066 12.0202 2.68066C9.97145 2.68066 7.97213 3.30994 6.29271 4.48336C4.61328 5.65678 3.3348 7.31772 2.6302 9.24149C2.6302 9.24149 2.6302 9.24149 2.6302 9.29149C1.84332 11.4624 1.84332 13.8406 2.6302 16.0115V16.0615C3.3348 17.9853 4.61328 19.6462 6.29271 20.8196C7.97213 21.993 9.97145 22.6223 12.0202 22.6223C14.0689 22.6223 16.0683 21.993 17.7477 20.8196C19.4271 19.6462 20.7056 17.9853 21.4102 16.0615C21.4102 16.0615 21.4102 16.0615 21.4102 16.0115C22.1971 13.8406 22.1971 11.4624 21.4102 9.29149ZM4.2602 14.6515C3.9125 13.3408 3.9125 11.9622 4.2602 10.6515H6.1202C5.95994 11.98 5.95994 13.323 6.1202 14.6515H4.2602ZM5.0802 16.6515H6.4802C6.71366 17.5437 7.04921 18.4061 7.4802 19.2215C6.49949 18.5534 5.67969 17.6756 5.0802 16.6515ZM6.4802 8.65149H5.0802C5.67107 7.63058 6.48039 6.75296 7.4502 6.08149C7.02955 6.89821 6.70409 7.76052 6.4802 8.65149ZM11.0002 20.3515C9.77196 19.4502 8.90934 18.1367 8.5702 16.6515H11.0002V20.3515ZM11.0002 14.6515H8.1402C7.95411 13.3247 7.95411 11.9783 8.1402 10.6515H11.0002V14.6515ZM11.0002 8.65149H8.5702C8.90934 7.16626 9.77196 5.85281 11.0002 4.95149V8.65149ZM18.9202 8.65149H17.5202C17.2867 7.75924 16.9512 6.89688 16.5202 6.08149C17.5009 6.74956 18.3207 7.62743 18.9202 8.65149ZM13.0002 4.95149C14.2284 5.85281 15.091 7.16626 15.4302 8.65149H13.0002V4.95149ZM13.0002 20.3515V16.6515H15.4302C15.091 18.1367 14.2284 19.4502 13.0002 20.3515ZM15.8602 14.6515H13.0002V10.6515H15.8602C16.0463 11.9783 16.0463 13.3247 15.8602 14.6515ZM16.5502 19.2215C16.9812 18.4061 17.3167 17.5437 17.5502 16.6515H18.9502C18.3507 17.6756 17.5309 18.5534 16.5502 19.2215ZM19.7402 14.6515H17.8802C17.9619 13.988 18.002 13.32 18.0002 12.6515C18.002 11.983 17.9619 11.315 17.8802 10.6515H19.7402C20.0879 11.9622 20.0879 13.3408 19.7402 14.6515Z" fill="white"/>
</svg>
