<svg width="17" height="17" viewBox="0 0 17 17" fill="none" xmlns="http://www.w3.org/2000/svg">
<path d="M5.52508 1.41699H11.4751C13.7417 1.41699 15.5834 3.25866 15.5834 5.52533V11.4753C15.5834 12.5649 15.1506 13.6099 14.3801 14.3804C13.6097 15.1508 12.5647 15.5837 11.4751 15.5837H5.52508C3.25841 15.5837 1.41675 13.742 1.41675 11.4753V5.52533C1.41675 4.43573 1.84959 3.39076 2.62005 2.6203C3.39051 1.84983 4.43548 1.41699 5.52508 1.41699ZM5.38341 2.83366C4.70711 2.83366 4.05851 3.10232 3.58029 3.58054C3.10207 4.05875 2.83341 4.70736 2.83341 5.38366V11.617C2.83341 13.0266 3.97383 14.167 5.38341 14.167H11.6167C12.2931 14.167 12.9417 13.8983 13.4199 13.4201C13.8981 12.9419 14.1667 12.2933 14.1667 11.617V5.38366C14.1667 3.97408 13.0263 2.83366 11.6167 2.83366H5.38341ZM12.2188 3.89616C12.4537 3.89616 12.6789 3.98944 12.8449 4.15549C13.011 4.32154 13.1042 4.54675 13.1042 4.78158C13.1042 5.0164 13.011 5.24161 12.8449 5.40766C12.6789 5.57371 12.4537 5.66699 12.2188 5.66699C11.984 5.66699 11.7588 5.57371 11.5927 5.40766C11.4267 5.24161 11.3334 5.0164 11.3334 4.78158C11.3334 4.54675 11.4267 4.32154 11.5927 4.15549C11.7588 3.98944 11.984 3.89616 12.2188 3.89616ZM8.50008 4.95866C9.43939 4.95866 10.3402 5.3318 11.0044 5.99599C11.6686 6.66018 12.0417 7.56102 12.0417 8.50033C12.0417 9.43963 11.6686 10.3405 11.0044 11.0047C10.3402 11.6689 9.43939 12.042 8.50008 12.042C7.56077 12.042 6.65994 11.6689 5.99575 11.0047C5.33155 10.3405 4.95841 9.43963 4.95841 8.50033C4.95841 7.56102 5.33155 6.66018 5.99575 5.99599C6.65994 5.3318 7.56077 4.95866 8.50008 4.95866ZM8.50008 6.37533C7.9365 6.37533 7.39599 6.59921 6.99748 6.99772C6.59896 7.39624 6.37508 7.93674 6.37508 8.50033C6.37508 9.06391 6.59896 9.60441 6.99748 10.0029C7.39599 10.4014 7.9365 10.6253 8.50008 10.6253C9.06367 10.6253 9.60417 10.4014 10.0027 10.0029C10.4012 9.60441 10.6251 9.06391 10.6251 8.50033C10.6251 7.93674 10.4012 7.39624 10.0027 6.99772C9.60417 6.59921 9.06367 6.37533 8.50008 6.37533Z" fill="#2B65F3"/>
</svg>
