<svg width="16" height="17" viewBox="0 0 16 17" fill="none" xmlns="http://www.w3.org/2000/svg">
<path fill-rule="evenodd" clip-rule="evenodd" d="M10.159 11.2201C10.0853 11.2887 10.0262 11.3715 9.98522 11.4635C9.94423 11.5555 9.92218 11.6548 9.92041 11.7555C9.91863 11.8562 9.93716 11.9563 9.97488 12.0497C10.0126 12.143 10.0687 12.2279 10.14 12.2991C10.2112 12.3703 10.296 12.4265 10.3894 12.4642C10.4828 12.5019 10.5828 12.5204 10.6835 12.5187C10.7842 12.5169 10.8835 12.4948 10.9755 12.4538C11.0675 12.4128 11.1503 12.3537 11.219 12.2801L14.469 9.03006L15 8.50006L14.47 7.97006L11.22 4.72006C11.0786 4.58337 10.8892 4.50769 10.6925 4.5093C10.4959 4.51092 10.3078 4.58971 10.1686 4.7287C10.0295 4.86769 9.95054 5.05576 9.94874 5.25241C9.94694 5.44906 10.0224 5.63854 10.159 5.78006L12.129 7.75006H1.75C1.55109 7.75006 1.36032 7.82908 1.21967 7.96973C1.07902 8.11038 1 8.30115 1 8.50006C1 8.69897 1.07902 8.88974 1.21967 9.03039C1.36032 9.17104 1.55109 9.25006 1.75 9.25006H12.129L10.159 11.2201Z" fill="#1AB9F1"/>
</svg>
