<svg width="64" height="64" viewBox="0 0 64 64" fill="none" xmlns="http://www.w3.org/2000/svg">
<g id="material-symbols:mail-outline-rounded">
<path id="Vector" d="M10.6668 53.3332C9.20016 53.3332 7.94505 52.8114 6.9015 51.7678C5.85794 50.7243 5.33527 49.4683 5.3335 47.9998V15.9998C5.3335 14.5332 5.85616 13.2781 6.9015 12.2345C7.94683 11.1909 9.20194 10.6683 10.6668 10.6665H53.3335C54.8002 10.6665 56.0562 11.1892 57.1015 12.2345C58.1468 13.2798 58.6686 14.5349 58.6668 15.9998V47.9998C58.6668 49.4665 58.1451 50.7225 57.1015 51.7678C56.0579 52.8132 54.8019 53.3349 53.3335 53.3332H10.6668ZM53.3335 21.3332L33.4002 33.7998C33.1779 33.9332 32.9451 34.0336 32.7015 34.1012C32.4579 34.1687 32.2242 34.2016 32.0002 34.1998C31.7762 34.1981 31.5433 34.1652 31.3015 34.1012C31.0597 34.0372 30.8259 33.9367 30.6002 33.7998L10.6668 21.3332V47.9998H53.3335V21.3332ZM32.0002 29.3332L53.3335 15.9998H10.6668L32.0002 29.3332ZM10.6668 21.9998V18.0665V18.1332V18.1012V21.9998Z" fill="#1AB9F1"/>
</g>
</svg>
