<svg width="56" height="55" viewBox="0 0 56 55" fill="none" xmlns="http://www.w3.org/2000/svg">
<g id="mdi:instagram">
<path id="Vector" d="M18.3752 4.5835H37.6252C44.9585 4.5835 50.9168 10.5418 50.9168 17.8752V37.1252C50.9168 40.6503 49.5165 44.0311 47.0238 46.5238C44.5311 49.0165 41.1503 50.4168 37.6252 50.4168H18.3752C11.0418 50.4168 5.0835 44.4585 5.0835 37.1252V17.8752C5.0835 14.35 6.48386 10.9692 8.97654 8.47654C11.4692 5.98386 14.85 4.5835 18.3752 4.5835ZM17.9168 9.16683C15.7288 9.16683 13.6304 10.036 12.0832 11.5832C10.536 13.1304 9.66683 15.2288 9.66683 17.4168V37.5835C9.66683 42.1439 13.3564 45.8335 17.9168 45.8335H38.0835C40.2715 45.8335 42.37 44.9643 43.9171 43.4171C45.4643 41.87 46.3335 39.7715 46.3335 37.5835V17.4168C46.3335 12.8564 42.6439 9.16683 38.0835 9.16683H17.9168ZM40.0314 12.6043C40.7911 12.6043 41.5198 12.9061 42.057 13.4433C42.5942 13.9806 42.896 14.7092 42.896 15.4689C42.896 16.2286 42.5942 16.9573 42.057 17.4945C41.5198 18.0317 40.7911 18.3335 40.0314 18.3335C39.2717 18.3335 38.5431 18.0317 38.0058 17.4945C37.4686 16.9573 37.1668 16.2286 37.1668 15.4689C37.1668 14.7092 37.4686 13.9806 38.0058 13.4433C38.5431 12.9061 39.2717 12.6043 40.0314 12.6043ZM28.0002 16.0418C31.0391 16.0418 33.9536 17.249 36.1024 19.3979C38.2513 21.5468 39.4585 24.4612 39.4585 27.5002C39.4585 30.5391 38.2513 33.4536 36.1024 35.6024C33.9536 37.7513 31.0391 38.9585 28.0002 38.9585C24.9612 38.9585 22.0468 37.7513 19.8979 35.6024C17.749 33.4536 16.5418 30.5391 16.5418 27.5002C16.5418 24.4612 17.749 21.5468 19.8979 19.3979C22.0468 17.249 24.9612 16.0418 28.0002 16.0418ZM28.0002 20.6252C26.1768 20.6252 24.4281 21.3495 23.1388 22.6388C21.8495 23.9281 21.1252 25.6768 21.1252 27.5002C21.1252 29.3235 21.8495 31.0722 23.1388 32.3615C24.4281 33.6508 26.1768 34.3752 28.0002 34.3752C29.8235 34.3752 31.5722 33.6508 32.8615 32.3615C34.1508 31.0722 34.8752 29.3235 34.8752 27.5002C34.8752 25.6768 34.1508 23.9281 32.8615 22.6388C31.5722 21.3495 29.8235 20.6252 28.0002 20.6252Z" fill="#1AB9F1"/>
</g>
</svg>
