<svg width="24" height="25" viewBox="0 0 24 25" fill="none" xmlns="http://www.w3.org/2000/svg">
<g id="mdi:instagram">
<path id="Vector" d="M7.8 2.65137H16.2C19.4 2.65137 22 5.25137 22 8.45137V16.8514C22 18.3896 21.3889 19.8649 20.3012 20.9526C19.2135 22.0403 17.7383 22.6514 16.2 22.6514H7.8C4.6 22.6514 2 20.0514 2 16.8514V8.45137C2 6.91311 2.61107 5.43786 3.69878 4.35015C4.78649 3.26244 6.26174 2.65137 7.8 2.65137ZM7.6 4.65137C6.64522 4.65137 5.72955 5.03065 5.05442 5.70578C4.37929 6.38091 4 7.29659 4 8.25137V17.0514C4 19.0414 5.61 20.6514 7.6 20.6514H16.4C17.3548 20.6514 18.2705 20.2721 18.9456 19.597C19.6207 18.9218 20 18.0061 20 17.0514V8.25137C20 6.26137 18.39 4.65137 16.4 4.65137H7.6ZM17.25 6.15137C17.5815 6.15137 17.8995 6.28306 18.1339 6.51748C18.3683 6.7519 18.5 7.06985 18.5 7.40137C18.5 7.73289 18.3683 8.05083 18.1339 8.28525C17.8995 8.51967 17.5815 8.65137 17.25 8.65137C16.9185 8.65137 16.6005 8.51967 16.3661 8.28525C16.1317 8.05083 16 7.73289 16 7.40137C16 7.06985 16.1317 6.7519 16.3661 6.51748C16.6005 6.28306 16.9185 6.15137 17.25 6.15137ZM12 7.65137C13.3261 7.65137 14.5979 8.17815 15.5355 9.11583C16.4732 10.0535 17 11.3253 17 12.6514C17 13.9775 16.4732 15.2492 15.5355 16.1869C14.5979 17.1246 13.3261 17.6514 12 17.6514C10.6739 17.6514 9.40215 17.1246 8.46447 16.1869C7.52678 15.2492 7 13.9775 7 12.6514C7 11.3253 7.52678 10.0535 8.46447 9.11583C9.40215 8.17815 10.6739 7.65137 12 7.65137ZM12 9.65137C11.2044 9.65137 10.4413 9.96744 9.87868 10.53C9.31607 11.0927 9 11.8557 9 12.6514C9 13.447 9.31607 14.2101 9.87868 14.7727C10.4413 15.3353 11.2044 15.6514 12 15.6514C12.7957 15.6514 13.5587 15.3353 14.1213 14.7727C14.6839 14.2101 15 13.447 15 12.6514C15 11.8557 14.6839 11.0927 14.1213 10.53C13.5587 9.96744 12.7957 9.65137 12 9.65137Z" fill="white"/>
</g>
</svg>
